# xmcd
#
# Track frame offsets:
#	150
#	50812
#	118088
#	170952
#	232431
#
# Disc length: 4299 seconds
#
# Revision: 1
# Processed by: cddbd v1.5.2PL0 Copyright (c) Steve Scherf et al.
# Submitted via: audiograbber 1.83.01
#
DISCID=5010c905
DTITLE=Grateful Dead - 78-10-17 Winterland Arena, San Francisco CA
DYEAR=1900
DGENRE=
TTITLE0=Scarlet Begonias
TTITLE1=Fire On The Mountain
TTITLE2=Estimated Prophet
TTITLE3=Eyes Of The World
TTITLE4=Drums
EXTD=
EXTT0=
EXTT1=
EXTT2=
EXTT3=
EXTT4=
PLAYORDER=
